<svg width="9" height="15" viewBox="0 0 9 15" fill="none" xmlns="http://www.w3.org/2000/svg">
<path d="M1.05857 14.9901C0.852216 14.995 0.649579 14.9307 0.478826 14.8063C0.308074 14.6818 0.177691 14.5032 0.105804 14.2954C0.0339176 14.0877 0.0240998 13.8611 0.0777152 13.6471C0.131331 13.4331 0.245715 13.2424 0.404966 13.1015L6.4813 7.51245L0.404966 1.92539C0.294805 1.83846 0.202546 1.7281 0.13397 1.60111C0.0653934 1.47412 0.0219761 1.33326 0.00643628 1.18743C-0.00910353 1.04159 0.00356934 0.893911 0.0436611 0.753576C0.0837529 0.613242 0.1504 0.483265 0.239428 0.371866C0.328457 0.260468 0.437949 0.170105 0.561048 0.106244C0.684147 0.0423832 0.818202 0.00651455 0.954816 0.000855446C1.09143 -0.00480366 1.22766 0.0198002 1.35498 0.073287C1.48229 0.126774 1.59795 0.207908 1.69471 0.311609L8.65156 6.70242C8.76081 6.80252 8.84854 6.92677 8.90869 7.06679C8.96885 7.20682 9 7.35923 9 7.51343C9 7.66764 8.96885 7.82004 8.90869 7.96007C8.84854 8.1001 8.76081 8.22446 8.65156 8.32456L1.69471 14.7215C1.51897 14.8891 1.29356 14.9844 1.05857 14.9903V14.9901Z" fill="url(#paint0_linear)"/>
<defs>
<linearGradient id="paint0_linear" x1="8.89221" y1="5.665" x2="0.133231" y2="5.38746" gradientUnits="userSpaceOnUse">
<stop stop-color="#5757D3"/>
<stop offset="1" stop-color="#701DC1"/>
</linearGradient>
</defs>
</svg>
