<svg width="52" height="52" viewBox="0 0 52 52" fill="none" xmlns="http://www.w3.org/2000/svg">
<path d="M26 49.8334C21.2862 49.8334 16.6783 48.4356 12.7589 45.8167C8.83955 43.1979 5.78478 39.4756 3.98089 35.1207C2.177 30.7657 1.70502 25.9736 2.62463 21.3504C3.54425 16.7272 5.81415 12.4805 9.14731 9.14733C12.4805 5.81417 16.7271 3.54427 21.3504 2.62466C25.9736 1.70504 30.7657 2.17702 35.1206 3.98091C39.4756 5.7848 43.1979 8.83958 45.8167 12.7589C48.4356 16.6783 49.8334 21.2863 49.8334 26C49.8259 32.3187 47.3125 38.3765 42.8445 42.8445C38.3765 47.3125 32.3187 49.8259 26 49.8334ZM26 6.50004C22.1433 6.50004 18.3732 7.64369 15.1664 9.78638C11.9596 11.9291 9.46027 14.9746 7.98436 18.5377C6.50846 22.1009 6.12229 26.0217 6.8747 29.8043C7.62711 33.5869 9.48431 37.0615 12.2114 39.7886C14.9386 42.5157 18.4131 44.3729 22.1958 45.1254C25.9784 45.8778 29.8992 45.4916 33.4623 44.0157C37.0255 42.5398 40.071 40.0404 42.2137 36.8337C44.3564 33.6269 45.5 29.8568 45.5 26C45.4937 20.8303 43.4372 15.874 39.7816 12.2184C36.126 8.56283 31.1698 6.50635 26 6.50004Z" fill="white"/>
<path d="M26 32.5C25.4254 32.5 24.8743 32.2717 24.4679 31.8654C24.0616 31.4591 23.8333 30.908 23.8333 30.3333V15.1667C23.8333 14.592 24.0616 14.0409 24.4679 13.6346C24.8743 13.2283 25.4254 13 26 13C26.5746 13 27.1257 13.2283 27.5321 13.6346C27.9384 14.0409 28.1667 14.592 28.1667 15.1667V30.3333C28.1667 30.908 27.9384 31.4591 27.5321 31.8654C27.1257 32.2717 26.5746 32.5 26 32.5Z" fill="white"/>
<path d="M26 34.6667C27.1966 34.6667 28.1667 35.6367 28.1667 36.8333C28.1667 38.03 27.1966 39 26 39C24.8034 39 23.8333 38.03 23.8333 36.8333C23.8333 35.6367 24.8034 34.6667 26 34.6667Z" fill="white"/>
</svg>
