<svg width="141" height="66" viewBox="0 0 141 66" fill="none" xmlns="http://www.w3.org/2000/svg">
<path fill-rule="evenodd" clip-rule="evenodd" d="M0 0.864943V25.5247C2.09518 25.8179 6.28554 27.6644 6.28554 32.7042C6.28554 37.744 2.09518 39.685 0 40.0255V64.3732C0.283133 64.7704 1.29108 65.565 3.05783 65.565H115.178V63.6921C115.178 63.3516 115.416 62.6705 116.367 62.6705C117.319 62.6705 117.557 63.3516 117.557 63.6921V65.565H137.602C138.339 65.565 140.049 65.3266 141 64.3732V40.0255C138.905 39.685 134.714 37.7099 134.714 32.5339C134.714 27.3579 138.905 25.6099 141 25.3829V1.20547C140.83 0.864943 139.913 0.18389 137.602 0.18389H117.557V1.546C117.557 1.88652 117.319 2.56758 116.367 2.56758C115.416 2.56758 115.178 1.88652 115.178 1.546V0.18389L3.90723 0.0136263C2.7747 -0.0431282 0.407711 0.0476789 0 0.864943ZM33.84 28.7315L39.3065 47.6363C39.3824 47.94 39.8531 48.5474 41.1286 48.5474H101.032C101.715 48.5474 103.173 48.0918 103.537 46.2697C103.902 44.4475 106.574 33.8183 107.865 28.7315L87.138 41.2588L70.9664 8.46L54.7948 41.2588L33.84 28.7315ZM70.9664 31.6925L67.3221 34.8812V40.8032L70.9664 43.992L74.8384 40.8032V34.8812L70.9664 31.6925ZM52.5171 21.2152L47.7339 33.0592L54.1115 37.3868L58.4391 31.2371L52.5171 21.2152ZM83.9492 31.2371L87.5935 37.3868L94.4266 33.0592L89.6435 21.2152L83.9492 31.2371ZM39.5342 58.3416V50.3697H102.626V58.3416H39.5342Z" fill="#F3F3F3"/>
</svg>
