<svg width="78" height="52" viewBox="0 0 78 52" fill="none" xmlns="http://www.w3.org/2000/svg">
<path fill-rule="evenodd" clip-rule="evenodd" d="M5.25711 40.6149L0.165488 23.0064C-0.0866865 22.1343 0.860049 21.4045 1.63925 21.8703L20.7508 33.2956C21.2521 33.5954 21.9025 33.4034 22.1608 32.8796L37.9333 0.890297C38.3 0.146596 39.3604 0.146593 39.7271 0.890294L55.4972 32.8748C55.7564 33.4004 56.4099 33.5916 56.9114 33.2884L75.8725 21.8284C76.6378 21.3659 77.5798 22.0622 77.3608 22.9291C75.8961 28.7278 73.7057 37.484 73.3694 39.1657C72.9829 41.098 71.4371 41.581 70.7125 41.581H7.18937C5.83679 41.581 5.33762 40.9369 5.25711 40.6149ZM34.9656 27.5428C34.9656 27.2544 35.0901 26.9801 35.3071 26.7902L38.1913 24.2666C38.5597 23.9442 39.1075 23.936 39.4855 24.2472L42.5719 26.789C42.8026 26.979 42.9362 27.2621 42.9362 27.5609V32.897C42.9362 33.1958 42.8026 33.4789 42.5719 33.6689L39.4855 36.2107C39.1075 36.5219 38.5597 36.5137 38.1913 36.1913L35.3071 33.6677C35.0901 33.4778 34.9656 33.2035 34.9656 32.9151V27.5428ZM14.8619 25.61C14.4721 25.3455 14.3198 24.8448 14.4962 24.408L18.5079 14.4743C18.8181 13.706 19.8745 13.6267 20.296 14.34L25.2173 22.6684C25.4173 23.0068 25.4004 23.4311 25.1742 23.7526L21.5225 28.9418C21.2085 29.388 20.5947 29.5001 20.1432 29.1938L14.8619 25.61ZM57.3323 29.1946C56.8559 29.4964 56.2244 29.3447 55.937 28.8596L52.8934 23.7236C52.7105 23.4149 52.707 23.0318 52.8843 22.7198L57.6139 14.3957C58.0271 13.6684 59.0974 13.7396 59.4106 14.5152L63.3959 24.3835C63.5767 24.8313 63.4117 25.3444 63.0037 25.6028L57.3323 29.1946ZM6.49864 43.5132C5.94636 43.5132 5.49864 43.9609 5.49864 44.5132V50.9668C5.49864 51.5191 5.94636 51.9668 6.49865 51.9668H71.4033C71.9556 51.9668 72.4033 51.5191 72.4033 50.9668V44.5132C72.4033 43.9609 71.9556 43.5132 71.4033 43.5132H6.49864Z" fill="url(#paint0_linear)"/>
<defs>
<linearGradient id="paint0_linear" x1="77.5669" y1="39.1879" x2="-0.928452" y2="34.1636" gradientUnits="userSpaceOnUse">
<stop stop-color="#5757D3"/>
<stop offset="1" stop-color="#701DC1"/>
</linearGradient>
</defs>
</svg>
