<svg width="188" height="166" viewBox="0 0 188 166" fill="none" xmlns="http://www.w3.org/2000/svg">
<g opacity="0.1" filter="url(#filter0_d)">
<path fill-rule="evenodd" clip-rule="evenodd" d="M65.1858 76.0517L60.253 58.9923L79.1622 70.2967L93.7551 40.6997L108.348 70.2967L127.052 58.9923C125.887 63.5826 123.475 73.1742 123.147 74.8184C122.818 76.4627 121.502 76.8738 120.886 76.8738H66.8301C65.6791 76.8738 65.2543 76.3257 65.1858 76.0517ZM90.4666 64.5417L93.7551 61.6642L97.2492 64.5417V69.8856L93.7551 72.7631L90.4666 69.8856V64.5417ZM72.7906 62.8974L77.1068 52.2096L82.4507 61.2531L78.5456 66.8025L72.7906 62.8974ZM108.759 66.8025L105.471 61.2531L110.609 52.2096L114.925 62.8974L108.759 66.8025ZM65.3914 78.518V85.7117H122.324V78.518H65.3914Z" fill="white"/>
</g>
<defs>
<filter id="filter0_d" x="0.252991" y="0.699707" width="186.799" height="165.012" filterUnits="userSpaceOnUse" color-interpolation-filters="sRGB">
<feFlood flood-opacity="0" result="BackgroundImageFix"/>
<feColorMatrix in="SourceAlpha" type="matrix" values="0 0 0 0 0 0 0 0 0 0 0 0 0 0 0 0 0 0 127 0"/>
<feOffset dy="20"/>
<feGaussianBlur stdDeviation="30"/>
<feColorMatrix type="matrix" values="0 0 0 0 0 0 0 0 0 0 0 0 0 0 0 0 0 0 0.25 0"/>
<feBlend mode="normal" in2="BackgroundImageFix" result="effect1_dropShadow"/>
<feBlend mode="normal" in="SourceGraphic" in2="effect1_dropShadow" result="shape"/>
</filter>
</defs>
</svg>
