<svg width="54" height="41" viewBox="0 0 54 41" fill="none" xmlns="http://www.w3.org/2000/svg">
<path d="M35.4246 19.5128L23.2371 11.8956C22.7674 11.6021 22.1755 11.5866 21.6911 11.855C21.2067 12.1234 20.9061 12.6337 20.9061 13.1875V28.4219C20.9061 28.9757 21.2067 29.4858 21.6911 29.7544C21.9212 29.8819 22.1756 29.9453 22.4296 29.9453C22.7102 29.9453 22.9904 29.8678 23.237 29.7138L35.4245 22.0966C35.8699 21.8182 36.1405 21.33 36.1405 20.8047C36.1405 20.2794 35.87 19.7912 35.4246 19.5128ZM23.9531 25.6732V15.9361L31.7427 20.8047L23.9531 25.6732Z" fill="white" stroke="white" stroke-width="0.5"/>
<path d="M45.3828 1H8.61719C4.41707 1 1 4.41707 1 8.61719V32.9922C1 37.1923 4.41707 40.6094 8.61719 40.6094H45.3828C49.5829 40.6094 53 37.1923 53 32.9922V8.61719C53 4.41707 49.5829 1 45.3828 1ZM49.9531 32.9922C49.9531 35.5123 47.9029 37.5625 45.3828 37.5625H8.61719C6.09712 37.5625 4.04688 35.5123 4.04688 32.9922V8.61719C4.04688 6.09712 6.09712 4.04688 8.61719 4.04688H45.3828C47.9029 4.04688 49.9531 6.09712 49.9531 8.61719V32.9922Z" fill="white" stroke="white" stroke-width="0.5"/>
</svg>
