<svg width="46" height="30" viewBox="0 0 46 30" fill="none" xmlns="http://www.w3.org/2000/svg">
<path fill-rule="evenodd" clip-rule="evenodd" d="M3.77315 23.5617L0.485474 12.1918L13.0882 19.7261L22.8143 0L32.5403 19.7261L45.0061 12.1918C44.2298 15.2512 42.6225 21.6439 42.4033 22.7398C42.1842 23.8356 41.3074 24.1096 40.8965 24.1096H4.86904C4.10192 24.1096 3.81881 23.7443 3.77315 23.5617ZM20.6225 15.8904L22.8143 13.9726L25.143 15.8904V19.4521L22.8143 21.3699L20.6225 19.4521V15.8904ZM8.84165 14.7945L11.7184 7.6712L15.28 13.6986L12.6773 17.3972L8.84165 14.7945ZM32.8143 17.3972L30.6225 13.6986L34.0472 7.6712L36.9239 14.7945L32.8143 17.3972ZM3.91014 25.2055V30H41.8554V25.2055H3.91014Z" fill="white"/>
</svg>
