<svg width="52" height="52" viewBox="0 0 52 52" fill="none" xmlns="http://www.w3.org/2000/svg">
<g clip-path="url(#clip0)">
<path d="M50.5239 12.4063C50.4261 12.4029 48.4178 12.3351 45.4697 12.4003V6.35583C45.4697 5.46479 44.7089 4.7581 43.813 4.83172C37.9348 5.32246 30.4561 7.91991 26 12.6575C21.5439 7.91991 14.0652 5.32246 8.18693 4.83172C7.29273 4.75892 6.53027 5.46245 6.53027 6.35583V12.5637C4.85526 12.5005 3.27089 12.4559 1.57477 12.4061C0.719318 12.3791 -1.52588e-05 13.0681 -1.52588e-05 13.9348V41.7874C-1.52588e-05 42.5923 0.623679 43.2594 1.42672 43.3134C7.51052 43.7228 17.7014 43.7689 25.4 47.0525C26.0861 47.3455 26.7021 47.0089 26.6001 47.0525C34.2986 43.769 44.4876 43.723 50.5735 43.3134C51.3764 43.2594 52.0002 42.5923 52.0002 41.7874V13.9348C52 13.1108 51.3473 12.435 50.5239 12.4063ZM42.4109 8.07601V34.2889C38.0005 35.2755 32.4111 37.3808 27.5294 41.8447C27.5294 40.4983 27.5294 16.2837 27.5294 15.5554C30.8758 11.3802 37.2132 8.86356 42.4109 8.07601ZM9.58909 8.07601C14.7867 8.86356 21.1242 11.3802 24.4706 15.5554V41.8447C19.5889 37.3808 13.9995 35.2755 9.58909 34.2889V8.07601ZM3.05881 40.3482V15.5099C4.15397 15.5423 5.32529 15.5789 6.53027 15.6249V35.5355C6.53027 36.2713 7.05435 36.9029 7.77755 37.0386C11.2698 37.6941 15.8111 39.1169 20.0437 42.1804C14.0051 40.826 7.68436 40.6083 3.05881 40.3482ZM48.9412 40.3482C44.3232 40.6079 37.9972 40.8254 31.9561 42.1804C36.1887 39.1169 40.7302 37.6941 44.2223 37.0386C44.9455 36.9029 45.4696 36.2713 45.4696 35.5355V15.4601C46.8773 15.4286 48.0762 15.4282 48.9411 15.4361V40.3482H48.9412Z" fill="white"/>
<path d="M20.505 19.0785C19.3205 18.2532 17.2783 17.2402 15.0989 16.872C14.2664 16.7306 13.4768 17.2923 13.336 18.1252C13.1953 18.958 13.7564 19.7472 14.5893 19.888C16.2719 20.1723 17.8858 20.9816 18.7565 21.5883C19.4493 22.0709 20.4027 21.9009 20.8857 21.2076C21.3684 20.5146 21.1981 19.5613 20.505 19.0785Z" fill="white"/>
<path d="M20.3519 27.6911C19.262 27.0256 17.1303 25.8578 15.0989 25.5145C14.2664 25.3733 13.4768 25.9347 13.336 26.7677C13.1953 27.6006 13.7564 28.3897 14.5893 28.5305C16.1718 28.7979 18.0315 29.8581 18.7575 30.3016C19.4793 30.7422 20.4202 30.5136 20.86 29.7935C21.3002 29.0727 21.0728 28.1315 20.3519 27.6911Z" fill="white"/>
<path d="M33.2435 21.5883C34.1142 20.9816 35.7281 20.1723 37.4107 19.888C38.2436 19.7473 38.8047 18.958 38.664 18.1252C38.5233 17.2923 37.7338 16.7303 36.9011 16.872C34.7217 17.2402 32.6796 18.2532 31.495 19.0785C30.8019 19.5613 30.6316 20.5146 31.1144 21.2077C31.5974 21.9011 32.5511 22.0708 33.2435 21.5883Z" fill="white"/>
<path d="M36.9012 25.5146C34.8697 25.8578 32.738 27.0256 31.6481 27.6912C30.9273 28.1315 30.6998 29.0728 31.1401 29.7936C31.5803 30.5144 32.5215 30.7419 33.2425 30.3017C33.9686 29.8582 35.8282 28.798 37.4108 28.5306C38.2436 28.3899 38.8047 27.6007 38.6641 26.7678C38.5233 25.9348 37.7338 25.3729 36.9012 25.5146Z" fill="white"/>
</g>
<defs>
<clipPath id="clip0">
<rect width="52" height="52" fill="white"/>
</clipPath>
</defs>
</svg>
