<svg width="317" height="196" viewBox="0 0 317 196" fill="none" xmlns="http://www.w3.org/2000/svg">
<rect width="317" height="196" rx="10" fill="url(#paint0_linear)"/>
<mask id="mask0" mask-type="alpha" maskUnits="userSpaceOnUse" x="0" y="0" width="317" height="196">
<rect width="317" height="196" rx="10" fill="url(#paint1_linear)"/>
</mask>
<g mask="url(#mask0)">
<g filter="url(#filter0_f)">
<circle cx="299" cy="212" r="67" fill="#4A71DC"/>
</g>
<g filter="url(#filter1_f)">
<circle cx="151" cy="13" r="67" fill="#9E53F1"/>
</g>
</g>
<mask id="mask1" mask-type="alpha" maskUnits="userSpaceOnUse" x="0" y="0" width="317" height="196">
<rect width="317" height="196" rx="10" fill="url(#paint2_linear)"/>
</mask>
<g mask="url(#mask1)">
<g opacity="0.1" filter="url(#filter2_d)">
<path fill-rule="evenodd" clip-rule="evenodd" d="M-4.31925 170.879L-17 127.024L31.6095 156.084L69.1234 80L106.637 156.084L154.718 127.024C151.724 138.825 145.525 163.482 144.68 167.708C143.834 171.935 140.453 172.992 138.868 172.992H-0.0923386C-3.05118 172.992 -4.14313 171.583 -4.31925 170.879ZM60.6696 141.29L69.1234 133.893L78.1056 141.29V155.028L69.1234 162.425L60.6696 155.028V141.29ZM15.2302 137.063L26.3259 109.588L40.0634 132.836L30.0244 147.102L15.2302 137.063ZM107.694 147.102L99.2402 132.836L112.449 109.588L123.545 137.063L107.694 147.102ZM-3.79088 177.219V195.712H142.566V177.219H-3.79088Z" fill="white"/>
</g>
</g>
<defs>
<filter id="filter0_f" x="132" y="45" width="334" height="334" filterUnits="userSpaceOnUse" color-interpolation-filters="sRGB">
<feFlood flood-opacity="0" result="BackgroundImageFix"/>
<feBlend mode="normal" in="SourceGraphic" in2="BackgroundImageFix" result="shape"/>
<feGaussianBlur stdDeviation="50" result="effect1_foregroundBlur"/>
</filter>
<filter id="filter1_f" x="-16" y="-154" width="334" height="334" filterUnits="userSpaceOnUse" color-interpolation-filters="sRGB">
<feFlood flood-opacity="0" result="BackgroundImageFix"/>
<feBlend mode="normal" in="SourceGraphic" in2="BackgroundImageFix" result="shape"/>
<feGaussianBlur stdDeviation="50" result="effect1_foregroundBlur"/>
</filter>
<filter id="filter2_d" x="-77" y="40" width="291.718" height="235.712" filterUnits="userSpaceOnUse" color-interpolation-filters="sRGB">
<feFlood flood-opacity="0" result="BackgroundImageFix"/>
<feColorMatrix in="SourceAlpha" type="matrix" values="0 0 0 0 0 0 0 0 0 0 0 0 0 0 0 0 0 0 127 0"/>
<feOffset dy="20"/>
<feGaussianBlur stdDeviation="30"/>
<feColorMatrix type="matrix" values="0 0 0 0 0 0 0 0 0 0 0 0 0 0 0 0 0 0 0.25 0"/>
<feBlend mode="normal" in2="BackgroundImageFix" result="effect1_dropShadow"/>
<feBlend mode="normal" in="SourceGraphic" in2="effect1_dropShadow" result="shape"/>
</filter>
<linearGradient id="paint0_linear" x1="313.204" y1="121.93" x2="6.61673" y2="148.1" gradientUnits="userSpaceOnUse">
<stop stop-color="#5757D3"/>
<stop offset="1" stop-color="#701DC1"/>
</linearGradient>
<linearGradient id="paint1_linear" x1="313.204" y1="121.93" x2="6.61673" y2="148.1" gradientUnits="userSpaceOnUse">
<stop stop-color="#5757D3"/>
<stop offset="1" stop-color="#701DC1"/>
</linearGradient>
<linearGradient id="paint2_linear" x1="313.204" y1="121.93" x2="6.61673" y2="148.1" gradientUnits="userSpaceOnUse">
<stop stop-color="#5757D3"/>
<stop offset="1" stop-color="#701DC1"/>
</linearGradient>
</defs>
</svg>
