<svg width="52" height="52" viewBox="0 0 52 52" fill="none" xmlns="http://www.w3.org/2000/svg">
<path d="M13.4383 30.6792L18.9691 27.9137C15.0676 24.6877 12.2891 18.8343 12.2891 13.7109C12.2891 6.15073 18.4398 0 26 0C33.5602 0 39.7109 6.15073 39.7109 13.7109C39.7109 18.8336 36.9322 24.6879 33.0309 27.9137L38.5617 30.6792C44.2692 30.877 48.8516 35.5811 48.8516 41.3359V50.4766C48.8516 51.3179 48.1695 52 47.3281 52H4.67188C3.83053 52 3.14844 51.3179 3.14844 50.4766V41.3359C3.14844 35.5811 7.73084 30.877 13.4383 30.6792ZM16.0374 32.7862L20.4279 39.3719L23.7752 37.6983L19.3847 31.1126L16.0374 32.7862ZM26 3.04688C20.6371 3.04688 16.1867 7.0265 15.4452 12.1875H16.8594C19.3794 12.1875 21.4297 10.1373 21.4297 7.61719C21.4297 6.77584 22.1118 6.09375 22.9531 6.09375C23.7945 6.09375 24.4766 6.77584 24.4766 7.61719C24.4766 10.1373 26.5268 12.1875 29.0469 12.1875H36.5548C35.8133 7.0265 31.3629 3.04688 26 3.04688ZM32.6154 31.1125L28.2249 37.6982L31.5722 39.3718L35.9627 32.7861L32.6154 31.1125ZM27.5234 48.9531H45.8047V41.3359C45.8047 37.4019 42.8069 34.1552 38.9756 33.7595L33.3614 42.1809C32.9349 42.8206 32.0991 43.0419 31.4125 42.6985L27.5234 40.7541V48.9531ZM29.8648 29.7454C29.0882 28.7688 29.1585 27.3687 30.0412 26.4776C30.0412 26.4776 30.0413 26.4776 30.0413 26.4775C30.2011 26.3163 30.4974 26.0246 30.6857 25.8838C33.707 23.625 36.0681 19.2565 36.5655 15.2344H29.0469C26.5579 15.2344 24.344 14.0345 22.9531 12.1827C21.5622 14.0345 19.3484 15.2242 16.8594 15.2242H15.4343C15.932 19.248 18.2944 23.6277 21.3172 25.886C21.5046 26.0261 21.7998 26.3165 21.959 26.477C22.8457 27.3716 22.9096 28.7734 22.1355 29.7459L26 35.5426L29.8648 29.7454ZM6.19531 48.9531H24.4766V40.7541L20.5875 42.6986C19.9002 43.0422 19.0647 42.8202 18.6386 42.181L13.0244 33.7596C9.19313 34.1552 6.19531 37.4019 6.19531 41.3359V48.9531Z" fill="white"/>
<path d="M10.7656 42.8594H16.8594C17.7007 42.8594 18.3828 43.5415 18.3828 44.3828C18.3828 45.2242 17.7007 45.9062 16.8594 45.9062H10.7656C9.92428 45.9062 9.24219 45.2242 9.24219 44.3828C9.24219 43.5415 9.92428 42.8594 10.7656 42.8594Z" fill="white"/>
</svg>
